<?xml version="1.0" encoding="UTF-8" standalone="no"?>
<!-- Created with Inkscape (http://www.inkscape.org/) -->

<svg
   xmlns:dc="http://purl.org/dc/elements/1.1/"
   xmlns:cc="http://creativecommons.org/ns#"
   xmlns:rdf="http://www.w3.org/1999/02/22-rdf-syntax-ns#"
   xmlns:svg="http://www.w3.org/2000/svg"
   xmlns="http://www.w3.org/2000/svg"
   xmlns:sodipodi="http://sodipodi.sourceforge.net/DTD/sodipodi-0.dtd"
   xmlns:inkscape="http://www.inkscape.org/namespaces/inkscape"
   width="392.15625"
   height="152.3134"
   id="svg2"
   version="1.1"
   inkscape:version="0.48.2 r9819"
   sodipodi:docname="eye1.svg">
  <defs
     id="defs4" />
  <sodipodi:namedview
     id="base"
     pagecolor="#ffffff"
     bordercolor="#666666"
     borderopacity="1.0"
     inkscape:pageopacity="0.0"
     inkscape:pageshadow="2"
     inkscape:zoom="1.4"
     inkscape:cx="172.23444"
     inkscape:cy="80.397172"
     inkscape:document-units="px"
     inkscape:current-layer="layer1"
     showgrid="false"
     inkscape:window-width="1321"
     inkscape:window-height="839"
     inkscape:window-x="89"
     inkscape:window-y="96"
     inkscape:window-maximized="0"
     fit-margin-top="0"
     fit-margin-left="0"
     fit-margin-right="0"
     fit-margin-bottom="0" />
  <metadata
     id="metadata7">
    <rdf:RDF>
      <cc:Work
         rdf:about="">
        <dc:format>image/svg+xml</dc:format>
        <dc:type
           rdf:resource="http://purl.org/dc/dcmitype/StillImage" />
      </cc:Work>
    </rdf:RDF>
  </metadata>
  <g
     inkscape:label="Layer 1"
     inkscape:groupmode="layer"
     id="layer1"
     transform="translate(-183.84375,-156.06205)">
    <path
       style="fill:#57722d;fill-opacity:1;fill-rule:evenodd;stroke:none"
       d="M 194.9375 0 C 103.68458 0 10.38658 59.57396 0.1875 76 L 0 76 C 0.0283 76.049 0.06395 76.10637 0.09375 76.15625 C 0.06385 76.20615 0.0283 76.26345 0 76.3125 L 0.1875 76.3125 C 10.38658 92.73854 103.68458 152.3125 194.9375 152.3125 C 195.29094 152.3125 195.64609 152.3135 196 152.3125 C 196.0521 152.31235 196.10425 152.31278 196.15625 152.3125 C 196.51016 152.31344 196.86531 152.3125 197.21875 152.3125 C 288.47167 152.3125 381.76967 92.73854 391.96875 76.3125 L 392.15625 76.3125 C 392.12795 76.2635 392.0923 76.20613 392.0625 76.15625 C 392.0924 76.10635 392.12795 76.04905 392.15625 76 L 391.96875 76 C 381.76967 59.57396 288.47167 0 197.21875 0 C 196.86531 0 196.51016 -0.00094 196.15625 0 C 196.10425 -0.00028 196.05205 0.00015 196 0 C 195.64609 -0.001 195.29094 0 194.9375 0 z M 197.1875 5.8125 C 206.35222 5.9616153 215.48658 7.7067788 223.96875 11.0625 C 254.69931 22.24986 271.27147 57.66212 266.125 89.0625 C 262.25185 121.93903 230.7087 146.74016 198.375 147.3125 C 163.77096 149.2603 131.60392 121.27563 126.65625 87.5 C 118.97223 47.57608 152.91035 6.56736 193.25 5.84375 C 194.55819 5.7998238 195.87825 5.7911978 197.1875 5.8125 z "
       transform="translate(183.84375,156.06205)"
       id="path3906" />
    <path
       style="fill:#ed581f;fill-opacity:1;stroke:none"
       d="m 380.41063,190.92306 c -9.1795,0 -16.63029,7.45079 -16.63029,16.63029 0,1.21326 0.12029,2.38494 0.36711,3.5243 4.5754,-3.50015 10.14997,-5.61377 16.18976,-5.47 5.84335,-0.22297 11.56837,1.52985 16.41002,4.73577 0.15525,-0.91261 0.25698,-1.83322 0.25698,-2.79007 0,-9.1795 -7.41408,-16.63029 -16.59358,-16.63029 z m -25.51447,18.39244 c -9.1795,0 -16.63029,7.4508 -16.63029,16.6303 0,8.6667 6.62186,15.752 15.08841,16.52016 -3.5485,-11.10046 1.22136,-23.57545 10.05894,-30.80092 -2.49624,-1.49834 -5.39374,-2.34954 -8.51706,-2.34954 z m 26.10186,0.58739 c -13.43955,0 -24.33971,10.90015 -24.33971,24.3397 0,13.43954 10.90016,24.3397 24.33971,24.3397 13.43954,0 24.3397,-10.90016 24.3397,-24.3397 0,-13.43955 -10.90016,-24.3397 -24.3397,-24.3397 z m 25.51446,0.58738 c -2.59621,0 -5.04304,0.62726 -7.23216,1.68873 9.58411,7.22003 12.31278,20.45242 8.70062,31.46172 8.48559,-0.7494 15.16184,-7.83986 15.16184,-16.52016 0,-9.17949 -7.4508,-16.63029 -16.6303,-16.63029 z m -53.01135,32.45294 c -2.83608,2.98128 -4.55222,7.01434 -4.55222,11.45397 0,9.1795 7.45079,16.6303 16.63029,16.6303 6.11375,0 11.43067,-3.30653 14.31747,-8.22337 -10.51772,-0.60646 -20.8481,-6.68875 -25.07393,-16.70372 -0.52326,-1.03033 -0.95732,-2.09328 -1.32161,-3.15718 z m 54.33297,1.24819 c -1.71043,4.89096 -4.69854,9.30476 -8.92089,12.51861 -5.17639,4.44269 -11.75276,6.36018 -18.31902,6.13081 2.80255,5.22106 8.3074,8.77404 14.64787,8.77404 9.1795,0 16.59359,-7.41408 16.59359,-16.59358 0,-4.13643 -1.50138,-7.92115 -4.00155,-10.82988 z"
       id="path3824"
       inkscape:connector-curvature="0" />
  </g>
</svg>
